<svg version="1.1" xmlns="http://www.w3.org/2000/svg" width="1024" height="1024">


<path d="M0 0 C4.06206865 3.60136741 8.04663889 7.27985875 12 11 C12.65871094 11.61617188 13.31742188 12.23234375 13.99609375 12.8671875 C19.14513051 17.83785116 23.56976707 23.39087457 28 29 C28.69867187 29.87011719 29.39734375 30.74023438 30.1171875 31.63671875 C55.98357554 64.84612903 73.19215583 105.9808823 77 148 C77.11085938 149.21300781 77.22171875 150.42601562 77.3359375 151.67578125 C80.41811687 189.78651263 72.85726233 227.7746492 56 262 C55.64180176 262.73943848 55.28360352 263.47887695 54.91455078 264.24072266 C47.68155515 279.05429494 38.47282114 292.46066124 27.546875 304.80078125 C25.6164577 307.09716341 25.6164577 307.09716341 26 311 C27.60799659 313.07977584 29.18302113 314.88645155 31.01171875 316.75390625 C31.53578812 317.29603256 32.05985748 317.83815887 32.59980774 318.39671326 C33.71667652 319.54260876 34.83926418 320.68295367 35.96704102 321.81811523 C37.66184601 323.53648925 39.31562895 325.28837015 40.97070312 327.04492188 C48.08584413 334.37292396 53.57634462 337.76657237 64 339 C76.31546202 341.61165344 84.61227774 349.14722755 93.21875 357.9609375 C94.04330688 358.7921109 94.86786377 359.6232843 95.71740723 360.47964478 C98.31890585 363.10432806 100.90991365 365.7390586 103.5 368.375 C106.12044296 371.03051673 108.74304511 373.68385184 111.36828613 376.33462524 C112.99412523 377.97744109 114.61686938 379.62332679 116.23620605 381.27255249 C116.96456665 382.01067169 117.69292725 382.74879089 118.44335938 383.50927734 C119.08382202 384.16100922 119.72428467 384.81274109 120.38415527 385.48422241 C121.94153451 387.08983722 121.94153451 387.08983722 124 388 C124 388.66 124 389.32 124 390 C124.52953278 390.2061795 125.05906555 390.41235901 125.60464478 390.62478638 C128.99774928 392.5728246 131.57396071 395.26222963 134.32568359 398.00341797 C134.95061203 398.6184166 135.57554047 399.23341522 136.21940613 399.86705017 C138.2847121 401.90315648 140.34216313 403.9469627 142.3984375 405.9921875 C143.8356613 407.4178991 145.27288667 408.84360912 146.71011353 410.26931763 C149.72502764 413.2632202 152.73525377 416.26175735 155.74316406 419.26269531 C159.57827916 423.08688214 163.43155553 426.89218921 167.28961754 430.69320488 C170.2682525 433.63437584 173.23317676 436.58908871 176.19466019 439.54751968 C177.60812007 440.95496637 179.02653292 442.35745856 180.45014572 443.75463486 C190.91167794 454.03574679 199.97923744 463.72517303 200.29248047 479.17285156 C200.41162785 495.99878675 200.41162785 495.99878675 196 504 C195.56429687 504.7940625 195.12859375 505.588125 194.6796875 506.40625 C188.1468744 517.11577968 178.60352641 523.14304471 166.69921875 526.4609375 C155.50530918 528.6964795 144.10256157 526.52697347 134.36596584 520.61777306 C125.72704851 514.710753 118.37152584 506.59946847 110.87475586 499.33740234 C109.80102683 498.29951328 108.72729631 497.26162576 107.65356445 496.22373962 C97.91905296 486.80424118 88.24752137 477.32041372 78.59499264 467.81699181 C72.12537951 461.44976262 65.63646067 455.10499573 59.09594727 448.81054688 C53.35938361 443.28973908 47.66351571 437.73045791 42.01197726 432.12259448 C39.03032202 429.16654916 36.03323534 426.23203776 32.98643303 423.34305954 C12.10671791 403.50388666 12.10671791 403.50388666 11.24566746 391.31949806 C11.27415288 388.41524648 11.4805987 385.59853601 11.78004456 382.71109009 C12.16834081 378.91150732 12.06133843 378.11833124 10.19987488 374.52728271 C7.81227461 371.7843354 5.38394584 369.15855112 2.796875 366.6015625 C2.3142218 366.1217392 1.8315686 365.64191589 1.33428955 365.14755249 C-0.18912479 363.63521944 -1.71938455 362.13004085 -3.25 360.625 C-4.29212993 359.59291548 -5.33380105 358.56036746 -6.375 357.52734375 C-8.91138979 355.01285404 -11.45396326 352.50472561 -14 350 C-18.32578675 351.63762581 -21.85725302 353.85661421 -25.625 356.5 C-71.72952745 387.82523635 -131.4111743 398.82016535 -186 389 C-224.3632156 381.61254961 -259.94814533 366.1158855 -290 341 C-290.87930176 340.27296875 -290.87930176 340.27296875 -291.77636719 339.53125 C-303.66323553 329.67791499 -314.53865248 319.26293097 -324 307 C-324.42780762 306.44860352 -324.85561523 305.89720703 -325.29638672 305.32910156 C-355.05325921 266.73196267 -371.55801447 218.69801864 -371.3125 169.9375 C-371.31067719 169.17853424 -371.30885437 168.41956848 -371.30697632 167.63760376 C-371.25449402 154.57600717 -370.42572433 141.85920397 -368 129 C-367.83371094 128.10635742 -367.66742188 127.21271484 -367.49609375 126.29199219 C-359.22084523 83.33732255 -339.48052561 44.38127484 -309 13 C-308.484375 12.46391113 -307.96875 11.92782227 -307.4375 11.37548828 C-300.36229351 4.04304021 -293.12420734 -2.82030845 -285 -9 C-284.3596582 -9.48968262 -283.71931641 -9.97936523 -283.05957031 -10.48388672 C-210.61656685 -65.51045448 -109.52514328 -69.83899963 0 0 Z M-193 -10 C-193.9595459 -9.72091797 -194.9190918 -9.44183594 -195.90771484 -9.15429688 C-208.91839194 -5.29837181 -221.14341997 -0.59306975 -233 6 C-234.23299926 6.66680288 -235.46607223 7.3334695 -236.69921875 8 C-265.98570402 24.06184969 -290.5431955 49.03320492 -307 78 C-307.65355469 79.12148438 -308.30710937 80.24296875 -308.98046875 81.3984375 C-316.61755184 94.83445717 -322.0456365 109.35912065 -325.875 124.3125 C-326.06602295 125.05072998 -326.2570459 125.78895996 -326.45385742 126.54956055 C-329.60955436 139.7462415 -330.38441758 153.11007071 -330.3125 166.625 C-330.31034485 167.3615683 -330.3081897 168.0981366 -330.30596924 168.85702515 C-330.21143538 189.11595885 -327.32228658 207.72078212 -321 227 C-320.76941895 227.71349609 -320.53883789 228.42699219 -320.30126953 229.16210938 C-314.68064597 246.22398772 -305.98404624 261.83217225 -295 276 C-294.27167969 276.93972656 -293.54335938 277.87945313 -292.79296875 278.84765625 C-283.8378916 290.06167178 -274.39383693 300.23793453 -263 309 C-262.01644531 309.79921875 -261.03289062 310.5984375 -260.01953125 311.421875 C-221.09416066 342.81567318 -173.0910428 352.64865761 -124.12597656 348.68652344 C-117.30337154 347.92018085 -110.65612533 346.67192972 -104 345 C-103.12166504 344.78037598 -102.24333008 344.56075195 -101.33837891 344.33447266 C-89.75171549 341.33209682 -78.74930838 337.24892354 -68 332 C-67.31341309 331.66629395 -66.62682617 331.33258789 -65.91943359 330.98876953 C-21.100057 308.91355419 12.03378114 270.47114803 28.5234375 223.44921875 C30.79452237 216.74594748 33 210.1176896 33 203 C25.59894988 202.79654263 18.19862486 202.65680503 10.79541016 202.56054688 C8.27918551 202.52040641 5.7631464 202.4658799 3.24755859 202.39648438 C-0.37709369 202.29902437 -3.99927299 202.25397679 -7.625 202.21875 C-8.74302002 202.17745972 -9.86104004 202.13616943 -11.01293945 202.09362793 C-16.93532962 202.09025348 -20.26326897 202.56146094 -24.56640625 206.81445312 C-25.74001824 208.18526321 -26.88624304 209.58012999 -28 211 C-29.09937224 212.25421876 -30.20284278 213.50487154 -31.3125 214.75 C-31.87839844 215.40742187 -32.44429687 216.06484375 -33.02734375 216.7421875 C-35.43201516 219.49446488 -37.89991795 222.1862632 -40.375 224.875 C-43.80982508 228.60898915 -47.23223128 232.35262079 -50.625 236.125 C-51.70587891 237.32382812 -51.70587891 237.32382812 -52.80859375 238.546875 C-54.33409066 240.25456138 -55.84616857 241.97429061 -57.34765625 243.703125 C-58.11980469 244.58484375 -58.89195312 245.4665625 -59.6875 246.375 C-60.37199219 247.16648437 -61.05648438 247.95796875 -61.76171875 248.7734375 C-65.3074877 252.30064221 -68.32287324 254.77564845 -73.37658691 255.45169067 C-74.60647339 255.43041107 -75.83635986 255.40913147 -77.10351562 255.38720703 C-78.12912849 255.37861916 -78.12912849 255.37861916 -79.17546082 255.36985779 C-80.65037792 255.35581963 -82.12523312 255.33307756 -83.59989929 255.30246353 C-85.93796484 255.2571985 -88.27443756 255.24221646 -90.61291504 255.23605347 C-97.25684738 255.2152051 -103.89954408 255.15645386 -110.54248047 255.03808594 C-114.61532137 254.96764875 -118.68604039 254.94600309 -122.75944519 254.95479965 C-124.30651978 254.94851198 -125.85363778 254.92371601 -127.40010071 254.87976456 C-132.06795922 254.74984318 -136.458894 254.74924409 -141 256 C-143.39149053 258.37147277 -144.59857649 260.42585694 -145.91101074 263.5138855 C-148.13011166 268.57999513 -152.71028492 271.5736927 -157.625 273.8125 C-166.77117485 277.03059856 -175.0704904 276.76203505 -184 273 C-191.19396354 268.96987383 -194.83450146 263.53723503 -198.3125 256.25 C-200.58455071 245.50939663 -198.67653052 236.97436209 -193 227.75 C-188.02935463 222.4781034 -181.29113394 219.44648477 -174.19921875 218.484375 C-163.10485883 218.17217191 -156.21210061 220.67160546 -147.921875 227.828125 C-146 230 -146 230 -145.22695923 231.92597961 C-144.09559468 234.49937734 -143.08296446 236.0919402 -141 238 C-136.22240087 239.23707121 -131.44162394 239.1028025 -126.5390625 239.02734375 C-125.10565494 239.03019607 -123.67225038 239.03557145 -122.23886108 239.04335022 C-119.23728316 239.05062235 -116.23761683 239.02956671 -113.23632812 238.98803711 C-109.40319751 238.93694225 -105.5738795 238.95267876 -101.74070168 238.98941708 C-98.78058712 239.01091359 -95.82135479 238.99838293 -92.86127853 238.97564888 C-91.44920696 238.9685015 -90.03704614 238.97133644 -88.62501907 238.98463249 C-80.74718961 239.20764643 -80.74718961 239.20764643 -73.59889221 236.44918823 C-71.85019604 234.72005368 -70.41340839 233.00661163 -69 231 C-68.07767578 229.98679687 -68.07767578 229.98679687 -67.13671875 228.953125 C-66.65847656 228.39109375 -66.18023438 227.8290625 -65.6875 227.25 C-62.84271749 223.95133084 -59.93700707 220.71693361 -57 217.5 C-54.17422616 214.40268033 -51.36781221 211.2959585 -48.625 208.125 C-44.93830786 203.87518544 -41.10465723 199.76348387 -37.26220703 195.65478516 C-34.99436411 193.21779988 -32.85586545 190.81239219 -30.82421875 188.16796875 C-29 186 -29 186 -26 185 C-23.99158335 184.88293767 -21.97964011 184.82324033 -19.96801758 184.79467773 C-18.72695755 184.77473251 -17.48589752 184.75478729 -16.20722961 184.73423767 C-14.8529981 184.71725473 -13.49876527 184.70037587 -12.14453125 184.68359375 C-10.75875741 184.66301772 -9.37298975 184.64202108 -7.98722839 184.62062073 C-4.34259047 184.56546699 -0.69789654 184.51602826 2.94683838 184.46777344 C6.6670835 184.41750944 10.38724743 184.36184896 14.10742188 184.30664062 C21.40487913 184.19914101 28.70240397 184.09767793 36 184 C36.78232298 178.07307427 37.18282249 172.35285281 37.1875 166.375 C37.19974609 165.57449219 37.21199219 164.77398437 37.22460938 163.94921875 C37.23682004 158.7637547 36.74517038 153.79038322 35.9855957 148.65869141 C35.80205032 147.40859283 35.61850494 146.15849426 35.42939758 144.87051392 C35.28769638 143.92324432 35.14599518 142.97597473 35 142 C34.23658295 141.99635437 33.47316589 141.99270874 32.68661499 141.98895264 C25.47728985 141.95101975 18.26847845 141.89410793 11.05948448 141.81609726 C7.35360366 141.77665832 3.64795916 141.74445266 -0.05810547 141.72900391 C-3.63753427 141.7138131 -7.21631324 141.67932627 -10.79545212 141.63169098 C-12.15806796 141.61690184 -13.5207766 141.60896039 -14.88347244 141.60811615 C-28.08590586 141.59171653 -28.08590586 141.59171653 -33 137 C-33.67281006 136.37706055 -34.34562012 135.75412109 -35.03881836 135.11230469 C-35.63315674 134.47196289 -36.22749512 133.83162109 -36.83984375 133.171875 C-37.51080078 132.45386719 -38.18175781 131.73585938 -38.87304688 130.99609375 C-39.89495117 129.88427734 -39.89495117 129.88427734 -40.9375 128.75 C-41.61490234 128.02425781 -42.29230469 127.29851562 -42.99023438 126.55078125 C-46.86140958 122.38639144 -50.64166574 118.15219482 -54.37231445 113.86181641 C-56.75016248 111.14193204 -59.18115152 108.47302691 -61.625 105.8125 C-62.30175781 105.0709668 -62.30175781 105.0709668 -62.9921875 104.31445312 C-64.31883163 102.86772483 -65.65926363 101.43367828 -67 100 C-67.73734879 99.13156967 -68.47469757 98.26313934 -69.23439026 97.36839294 C-72.67980664 94.41783209 -74.40954212 94.34413061 -78.89819336 94.27368164 C-79.57203568 94.25688858 -80.24587799 94.24009552 -80.94013977 94.22279358 C-83.15718228 94.17548086 -85.37232862 94.16554319 -87.58984375 94.16015625 C-89.13774887 94.14407839 -90.68564642 94.12725689 -92.23353577 94.10972595 C-95.47414763 94.07983076 -98.71409401 94.07051993 -101.95483398 94.07348633 C-106.10021081 94.07399478 -110.24131033 94.0057068 -114.38567257 93.91962528 C-117.58154232 93.86392378 -120.77638327 93.85389274 -123.97268867 93.85653496 C-125.50018653 93.85065026 -127.02771362 93.82861745 -128.55473137 93.78987312 C-133.17681607 93.68356041 -137.51517879 93.7189706 -142 95 C-144.34108547 97.37883364 -145.52957491 99.43781571 -146.80079651 102.51121521 C-149.27939801 107.65521768 -154.71598224 110.07815649 -159.81640625 112.13671875 C-166.32821945 113.90249877 -175.49934066 114.39363178 -181.9375 111.875 C-182.948125 111.25625 -183.95875 110.6375 -185 110 C-185.66386719 109.60941406 -186.32773437 109.21882813 -187.01171875 108.81640625 C-193.33010753 104.69368677 -196.41771304 99.15257549 -198.609375 92.015625 C-200.20654171 83.77424476 -199.10382149 76.29971788 -195 69 C-190.26265902 62.05589765 -184.85866047 58.61955349 -177 56 C-166.77785108 55.20187426 -158.1739678 56.49798016 -150 63 C-147.14345502 66.0605839 -145.03794003 68.87880663 -143.30804443 72.65075684 C-142.32210162 74.51267128 -142.32210162 74.51267128 -141 76 C-137.61154155 77.00299095 -137.61154155 77.00299095 -133.69628906 76.77539062 C-132.96728394 76.77492233 -132.23827881 76.77445404 -131.48718262 76.77397156 C-129.90689712 76.7685417 -128.32660318 76.74705319 -126.74671173 76.71134949 C-124.23977537 76.65567594 -121.73597089 76.64374633 -119.22845459 76.64318848 C-113.00057349 76.63275656 -106.77412886 76.54718679 -100.546875 76.46380615 C-95.28733551 76.3962019 -90.02908273 76.35741367 -84.76909637 76.35624695 C-82.30848977 76.34396397 -79.85112015 76.2898456 -77.39117432 76.23400879 C-65.01965026 76.11583772 -65.01965026 76.11583772 -60.10473633 80.35180664 C-59.03137405 81.5340711 -57.99210557 82.74876766 -57 84 C-56.02442092 85.01384253 -55.04418492 86.02323157 -54.05859375 87.02734375 C-53.19363281 87.98769531 -52.32867188 88.94804687 -51.4375 89.9375 C-50.73173828 90.71770508 -50.73173828 90.71770508 -50.01171875 91.51367188 C-46.92925408 94.93063477 -43.895508 98.38876129 -40.8828125 101.8671875 C-37.97261181 105.16380488 -34.98493632 108.38982111 -31.99414062 111.61328125 C-29.6797221 114.11916836 -27.44163154 116.66010268 -25.2890625 119.3046875 C-23.28589669 122.02048883 -23.28589669 122.02048883 -21 123 C-19.36582405 123.0902835 -17.72797163 123.11755658 -16.09130859 123.11352539 C-15.07040131 123.11344986 -14.04949402 123.11337433 -12.99765015 123.11329651 C-11.89240997 123.10813522 -10.7871698 123.10297394 -9.6484375 123.09765625 C-8.5192691 123.0962413 -7.39010071 123.09482635 -6.22671509 123.09336853 C-2.60945012 123.08775744 1.00775364 123.07520303 4.625 123.0625 C7.07291577 123.05748643 9.52083252 123.05292328 11.96875 123.04882812 C17.97918766 123.0377844 23.98958946 123.02103544 30 123 C25.66463839 95.34788018 7.09041954 69.57285881 -11 49 C-11.88558594 47.93072266 -11.88558594 47.93072266 -12.7890625 46.83984375 C-21.73301233 36.11150984 -32.72730616 27.16219237 -44 19 C-44.82177734 18.39357666 -44.82177734 18.39357666 -45.66015625 17.77490234 C-62.73045177 5.28407996 -82.61460315 -3.53458324 -103 -9 C-103.94601074 -9.25539551 -104.89202148 -9.51079102 -105.86669922 -9.77392578 C-132.72792286 -16.6513519 -166.25073679 -18.03703704 -193 -10 Z " fill="#2B6499" transform="translate(702,333)" data-index="2"></path>
<path d="M0 0 C1.04510673 -0.00445784 2.09021347 -0.00891569 3.1669901 -0.01350862 C4.30879647 -0.01332426 5.45060283 -0.01313989 6.62700939 -0.01294994 C8.45408256 -0.01846498 8.45408256 -0.01846498 10.3180663 -0.02409142 C13.69636547 -0.03320171 17.07461612 -0.03782434 20.45292294 -0.04048073 C24.09803622 -0.04439112 27.74313553 -0.05396915 31.38823986 -0.0626936 C40.19164719 -0.08244045 48.99505565 -0.09252336 57.79847959 -0.10142139 C61.94905867 -0.10580845 66.09963649 -0.11117429 70.25021458 -0.11641026 C84.05725146 -0.1334231 97.86428756 -0.14791474 111.67133331 -0.155159 C115.25300949 -0.15706875 118.83468566 -0.1589891 122.41636181 -0.16094494 C123.75160174 -0.16167055 123.75160174 -0.16167055 125.11381622 -0.16241082 C139.51661666 -0.17070162 153.91933378 -0.1960222 168.32209788 -0.22852562 C183.12549753 -0.26165931 197.92885496 -0.27961357 212.73229188 -0.28280324 C221.03711754 -0.28496283 229.34182182 -0.29363018 237.64661121 -0.31926441 C244.72335584 -0.34105806 251.79994961 -0.34897964 258.87672398 -0.33929763 C262.48180824 -0.33477742 266.08658184 -0.33650432 269.69162273 -0.35605907 C294.3205307 -0.48215905 315.79545164 1.50691953 334.25303173 19.5321703 C347.81208037 34.09904606 351.08258752 51.56876652 350.93955517 70.76703358 C350.93581693 72.2548958 350.9329738 73.74276052 350.93097973 75.23062611 C350.92340701 79.11366246 350.9038146 82.99654504 350.88157177 86.87952137 C350.86097489 90.85502512 350.85194865 94.83055415 350.84189892 98.80609608 C350.82056153 106.58220723 350.78650421 114.35819247 350.74424267 122.13422108 C345.15113921 120.48271621 339.58847418 118.79205933 334.08018017 116.87250233 C332.93935986 116.47611561 331.79853954 116.07972889 330.62314892 115.67133045 C329.46685986 115.26720936 328.31057079 114.86308826 327.11924267 114.44672108 C325.92428173 114.03099842 324.72932079 113.61527576 323.49814892 113.18695545 C320.57951453 112.17127068 317.66156918 111.15365503 314.74424267 110.13422108 C314.74059704 109.50274662 314.73695141 108.87127216 314.7331953 108.22066212 C314.6912165 101.61734363 314.62176349 95.01471026 314.53672314 88.41180897 C314.50858787 85.95126687 314.48733653 83.49063564 314.47324657 81.02997303 C314.45171465 77.48222942 314.40500894 73.93554913 314.35361767 70.38812733 C314.35177471 68.75164989 314.35177471 68.75164989 314.34989452 67.08211231 C314.16755117 57.46126557 311.60194774 49.99192615 304.74424267 43.13422108 C299.58816783 39.51103335 295.04672312 38.01405671 288.80782986 37.99720669 C287.80854812 37.99213215 286.80926638 37.9870576 285.77970338 37.98182929 C284.68400049 37.98133153 283.5882976 37.98083377 282.45939159 37.98032093 C280.71088787 37.97374755 280.71088787 37.97374755 278.92706084 37.96704137 C275.69068882 37.95598483 272.45434406 37.94943147 269.2179575 37.94486022 C265.72771639 37.93889772 262.23749303 37.92728965 258.74726391 37.91656971 C250.31872086 37.89206294 241.89017194 37.87742232 233.46160424 37.86450964 C231.08087636 37.86079685 228.70014907 37.8568237 226.31942177 37.85275698 C211.53325576 37.82752269 196.74708881 37.80547115 181.96090603 37.79302883 C178.53712237 37.79009918 175.11333875 37.78713751 171.68955517 37.78412342 C170.41312217 37.78300434 170.41312217 37.78300434 169.11090264 37.78186266 C155.32339748 37.76920674 141.53602121 37.73597914 127.74857631 37.69432159 C113.59161483 37.65189828 99.43471934 37.62833347 85.27769446 37.62310827 C77.32966027 37.61969491 69.38182762 37.60794844 61.43385601 37.57500553 C54.66572107 37.54699855 47.897829 37.53600853 41.12964061 37.54720099 C37.67737332 37.55238582 34.22561461 37.54951337 30.77342129 37.52473545 C27.02753139 37.50211355 23.28292412 37.51030866 19.53702831 37.52621937 C18.45024831 37.51233728 17.36346831 37.49845519 16.24375558 37.48415244 C9.54099765 37.55433196 4.87139912 38.6471666 -0.25575733 43.13422108 C-3.8279153 48.04461329 -3.68225766 52.86008745 -3.66200733 58.70453358 C-3.6782616 60.08075382 -3.6782616 60.08075382 -3.69484425 61.4847765 C-3.72898411 64.40966285 -3.74465929 67.3341622 -3.75575733 70.25922108 C-3.82853084 89.23095852 -4.16701882 105.31135893 -17.76747608 119.80218983 C-27.57643049 128.99519733 -38.89487877 131.5790292 -51.99403858 131.54047108 C-53.61973019 131.55672535 -53.61973019 131.55672535 -55.27826405 131.57330799 C-59.87399233 131.61887485 -64.46965796 131.63069329 -69.06557178 131.64545155 C-72.43776515 131.66113064 -75.8094868 131.69410657 -79.18153858 131.72797108 C-80.21805058 131.72494984 -81.25456257 131.7219286 -82.32248402 131.7188158 C-89.38470283 131.64416676 -89.38470283 131.64416676 -95.25575733 135.13422108 C-97.68942842 139.98247675 -98.6312318 143.5185418 -98.63607407 149.01713181 C-98.64073399 149.67621256 -98.6453939 150.33529331 -98.65019503 151.01434621 C-98.66211002 153.21449851 -98.65276365 155.41402925 -98.64343739 157.61418629 C-98.64761185 159.21082768 -98.65308998 160.80746611 -98.6597572 162.40409905 C-98.67421577 166.78530697 -98.6699658 171.16632684 -98.66259038 175.54754508 C-98.65786206 180.27497191 -98.67036557 185.00235786 -98.6806078 189.72977161 C-98.69780751 198.9885978 -98.6986334 208.24735615 -98.69339489 217.50619417 C-98.68935427 225.0312332 -98.69079547 232.55625217 -98.69614315 240.08129025 C-98.69726578 241.68750013 -98.69726578 241.68750013 -98.6984111 243.32615869 C-98.69994256 245.50146111 -98.70148091 247.67676352 -98.70302606 249.85206593 C-98.71675526 270.25335815 -98.71131038 290.65461203 -98.69984085 311.05590338 C-98.68990726 329.72218711 -98.70285059 348.38837173 -98.72677504 367.05464017 C-98.75115408 386.21992104 -98.7607769 405.38515574 -98.75412232 424.55045182 C-98.75062754 435.31083563 -98.75287927 446.07114321 -98.77037334 456.83151531 C-98.78508033 465.99122493 -98.7857504 475.15080462 -98.76830243 484.31051164 C-98.75977783 488.98392271 -98.75767853 493.65710152 -98.77295399 498.3305006 C-98.78676748 502.60958687 -98.78208109 506.88824119 -98.76271475 511.16730226 C-98.75894417 512.71433017 -98.76190717 514.26139241 -98.7723264 515.80838984 C-98.82215542 523.77387914 -98.84772308 530.33644574 -94.25575733 537.13422108 C-89.05278379 541.16652557 -84.06444711 541.27340335 -77.68513966 541.18477345 C-76.91869704 541.17842237 -76.15225441 541.17207129 -75.36258626 541.16552776 C-73.68278009 541.1510732 -72.00299281 541.13428226 -70.32322979 541.11546993 C-66.6302005 541.07426689 -62.93710225 541.04450801 -59.24397135 541.01401889 C-57.25376564 540.99751526 -55.26356461 540.98043827 -53.27336836 540.96283066 C-40.46025929 540.85161819 -27.64683288 540.82126009 -14.83332491 540.78751194 C-2.37168832 540.75424615 10.08849028 540.69589319 22.54941845 540.55487537 C32.45440767 540.44292996 42.35786529 540.38879272 52.2635057 540.40044254 C57.4959843 540.40453842 62.72483908 540.38127597 67.95656109 540.28790951 C91.69339228 539.8838624 108.88152395 539.83274352 127.40594769 556.21238995 C131.15359256 559.2925576 135.31277486 561.49851052 139.61924267 563.69672108 C140.42184395 564.10649158 141.22444523 564.51626207 142.05136776 564.93844986 C152.17885966 570.02864322 162.80953327 574.15723213 173.74424267 577.13422108 C173.74424267 577.46422108 173.74424267 577.79422108 173.74424267 578.13422108 C140.20611397 578.22587426 106.66801655 578.2963093 73.12979032 578.33848239 C69.1659064 578.34348493 65.20202271 578.34866225 61.23813915 578.35394764 C60.05448483 578.3555215 60.05448483 578.3555215 58.84691831 578.35712716 C46.08750572 578.37450923 33.32816558 578.40603473 20.5687959 578.44283226 C7.46624386 578.48030299 -5.63627036 578.50246986 -18.73887378 578.51057506 C-26.81705018 578.51605015 -34.89502177 578.53331194 -42.97313509 578.56588694 C-49.1784535 578.58962781 -55.38361734 578.59202549 -61.58897495 578.5866518 C-64.12653008 578.58774885 -66.66409324 578.59566 -69.20160198 578.61104298 C-89.47127235 578.72785646 -105.52130197 577.1098887 -120.89638233 562.64203358 C-132.63933746 550.16028326 -134.86295132 535.65536975 -134.7636919 519.20709705 C-134.76830929 517.52634311 -134.77466781 515.84559322 -134.78260088 514.16485167 C-134.79920228 509.57876908 -134.79108995 504.99302212 -134.77865601 500.40693879 C-134.76956998 495.44843135 -134.7835928 490.48997982 -134.79457569 485.53148365 C-134.81232768 475.83061737 -134.80853573 466.12987514 -134.79692513 456.42900407 C-134.787878 448.54230603 -134.78667234 440.65564267 -134.79102039 432.76894093 C-134.79163333 431.64488367 -134.79224626 430.52082641 -134.79287776 429.36270681 C-134.79415671 427.07894225 -134.79545357 424.7951777 -134.79676813 422.51141316 C-134.8081642 401.11513055 -134.79507548 379.71891659 -134.77356666 358.32264525 C-134.75569658 339.97839007 -134.75880096 321.63423615 -134.77724171 303.2899828 C-134.79866559 281.96832822 -134.80706566 260.64673374 -134.79479265 239.3250699 C-134.79351851 237.04988035 -134.79226102 234.7746908 -134.79102039 232.49950123 C-134.79040329 231.38017245 -134.78978619 230.26084367 -134.78915039 229.10759583 C-134.78570205 221.2337505 -134.79151471 213.35994342 -134.80093861 205.48610401 C-134.81217682 195.88567492 -134.8090802 186.28537658 -134.78781563 176.68496239 C-134.77732979 171.79014431 -134.77314125 166.89554395 -134.78641224 162.00072765 C-134.79839316 157.51375545 -134.79168029 153.02720135 -134.77050203 148.54026669 C-134.76606 146.92334598 -134.76824779 145.30638942 -134.77800518 143.68949205 C-134.87657307 125.9881313 -130.47839739 112.47874924 -118.07411671 99.51434803 C-116.10074639 97.53155351 -114.10115323 95.57668225 -112.09950733 93.62250233 C-111.02673079 92.55976357 -109.95493187 91.49603716 -108.88405323 90.43138599 C-106.0875525 87.65561615 -103.27967928 84.89166319 -100.46858692 82.13068104 C-95.96854392 77.70648596 -91.48736094 73.26316847 -87.00424671 68.82183361 C-85.45269416 67.28773154 -83.89687157 65.75807964 -82.34010792 64.22926807 C-77.6899175 59.64965173 -73.18395443 55.02015108 -68.94081593 50.05897999 C-65.73436441 46.39640935 -62.28895469 42.96337541 -58.86513233 39.50531483 C-58.07987171 38.71198246 -57.29461109 37.91865009 -56.4855547 37.10127735 C-54.83311731 35.43509664 -53.17918403 33.77039828 -51.52382374 32.10712147 C-49.84776784 30.41952786 -48.17619215 28.72747261 -46.5091753 27.03094959 C-44.07522917 24.55404582 -41.6280345 22.09092778 -39.17763233 19.63031483 C-38.44703602 18.88221043 -37.7164397 18.13410603 -36.96370411 17.36333179 C-26.75487274 7.19613549 -14.69304181 0.02917495 0 0 Z " fill="#2A6398" transform="translate(289.25575733184814,146.86577892303467)" data-index="3" style="opacity: 1;"></path>
<path d="M0 0 C5.91041257 4.21589014 10.67031295 9.01093884 13 16 C39.07 16.33 65.14 16.66 92 17 C92.33 15.35 92.66 13.7 93 12 C96.93032093 4.71486942 103.27496575 -0.13552703 110.890625 -3.140625 C119.89947848 -5.63050913 128.89071144 -4.55610206 137 0 C143.83127679 4.10965257 147.6131509 10.50327677 150 18 C151.39753191 26.16452854 150.98635229 34.57430565 146.6875 41.81640625 C141.68809014 48.28555003 135.36834947 53.98173567 127.19921875 55.53125 C117.97326024 56.68035142 109.56500056 55.47924914 101.58203125 50.48828125 C96.20078925 46.15703769 94.66698259 42.60056867 91 36 C65.26 35.67 39.52 35.34 13 35 C12.34 36.98 11.68 38.96 11 41 C5.11316766 49.54005254 -1.9678967 53.81117746 -12 56 C-20.20803489 56.77434291 -28.38786819 54.16553365 -35.18359375 49.56640625 C-42.32012436 43.41210781 -45.27947249 34.6612876 -46.4375 25.5625 C-45.30189617 16.31544027 -41.477615 7.37316717 -34.08203125 1.46875 C-23.49908244 -5.57290259 -11.09611553 -6.27491774 0 0 Z " fill="#4F7EA9" transform="translate(470,473)" data-index="4"></path>
<path d="M0 0 C1.35283041 0.0067985 2.70567273 0.01151522 4.05851746 0.01425171 C7.60091108 0.02759894 11.14228772 0.07180868 14.68432617 0.12182617 C17.5832423 0.1573577 20.48205871 0.17032881 23.38115406 0.18224525 C29.36334152 0.20780344 35.34569857 0.250398 41.32739258 0.33056641 C42.38549637 0.34342682 43.44360016 0.35628723 44.5337677 0.36953735 C47.04296875 0.5234375 47.04296875 0.5234375 49.04296875 1.5234375 C48.90034463 3.0862337 48.75371364 4.64866446 48.60546875 6.2109375 C48.48365234 7.51611328 48.48365234 7.51611328 48.359375 8.84765625 C48.05453266 11.42564391 47.55207616 13.97790045 47.04296875 16.5234375 C28.56296875 16.5234375 10.08296875 16.5234375 -8.95703125 16.5234375 C-9.61703125 17.8434375 -10.27703125 19.1634375 -10.95703125 20.5234375 C-12.25390625 22.09155273 -12.25390625 22.09155273 -13.70703125 23.58203125 C-14.23296875 24.13310547 -14.75890625 24.68417969 -15.30078125 25.25195312 C-16.40299737 26.38926339 -17.5071604 27.52469013 -18.61328125 28.65820312 C-21.64811194 31.84551918 -23.42248852 34.34723901 -24.95703125 38.5234375 C-26.65625 40.48046875 -26.65625 40.48046875 -28.64453125 42.3359375 C-31.30812519 44.89928866 -33.85783532 47.47144295 -36.26953125 50.2734375 C-39.32197047 53.80194523 -42.39967448 57.3044727 -45.51953125 60.7734375 C-45.96659424 61.28100586 -46.41365723 61.78857422 -46.87426758 62.31152344 C-50.80115018 66.65225284 -54.4477823 70.14232264 -60.37399292 71.04241943 C-61.62197662 71.05130188 -62.86996033 71.06018433 -64.15576172 71.06933594 C-64.84914139 71.07967361 -65.54252106 71.09001129 -66.25691223 71.10066223 C-68.52958839 71.12996223 -70.80136903 71.13158658 -73.07421875 71.1328125 C-74.65749802 71.14780293 -76.2407617 71.1645319 -77.82400513 71.18292236 C-81.97665141 71.22651175 -86.12908677 71.24657611 -90.28192139 71.26165771 C-94.5253136 71.28125932 -98.76847904 71.32322583 -103.01171875 71.36328125 C-111.32676344 71.43849212 -119.64171885 71.48883855 -127.95703125 71.5234375 C-128.29485626 72.14638702 -128.63268127 72.76933655 -128.98074341 73.41116333 C-129.42682953 74.22567963 -129.87291565 75.04019592 -130.33251953 75.87939453 C-130.77346954 76.68796906 -131.21441956 77.49654358 -131.66873169 78.32962036 C-135.81818437 85.39563256 -142.74352339 89.05296092 -150.39453125 91.2109375 C-159.54738328 92.32713897 -167.72263361 91.13625588 -175.33203125 85.6484375 C-182.14235532 80.04154419 -186.18355424 73.39412801 -187.34765625 64.55859375 C-187.65813824 55.94271844 -185.60186265 48.72961486 -180.45703125 41.7734375 C-174.12591757 35.12655755 -166.33336484 32.1623443 -157.26953125 31.8984375 C-147.79706113 32.33339786 -141.95869471 35.23995024 -134.87890625 41.3515625 C-132.95703125 43.5234375 -132.95703125 43.5234375 -132.17410278 45.43829346 C-131.03857827 47.98993486 -130.00647064 49.60722341 -127.95703125 51.5234375 C-123.29117693 52.855614 -118.5980782 52.8465591 -113.77734375 52.8671875 C-112.36308703 52.89294022 -110.94885108 52.91985662 -109.53463745 52.94787598 C-106.56686243 52.99574394 -103.60094615 53.01060645 -100.6328125 53.00585938 C-97.61293283 53.00521159 -94.60282763 53.06016633 -91.58496094 53.16992188 C-73.74069846 54.41068592 -73.74069846 54.41068592 -57.78808594 48.13671875 C-54.5088781 44.94942476 -51.87599839 41.48261733 -49.39831543 37.6494751 C-46.91960067 33.99312415 -43.92126526 30.78855878 -40.95703125 27.5234375 C-39.83554687 26.26273438 -39.83554687 26.26273438 -38.69140625 24.9765625 C-37.26925551 23.39763924 -35.84447007 21.82108753 -34.41796875 20.24609375 C-32.66256445 18.30400359 -30.91917122 16.35411232 -29.18359375 14.39453125 C-28.23330384 13.33312654 -27.28278658 12.27192533 -26.33203125 11.2109375 C-25.47351563 10.24542969 -24.615 9.27992188 -23.73046875 8.28515625 C-15.84899733 0.43698683 -11.01869723 -0.1933489 0 0 Z " fill="#4F7EAA" transform="translate(688.95703125,518.4765625)" data-index="5"></path>
<path d="M0 0 C5.47499853 4.37999882 8.73103495 8.97631393 11.8125 15.25 C13.21405334 15.24547569 13.21405334 15.24547569 14.6439209 15.24085999 C23.47138596 15.2169331 32.29813885 15.22988189 41.12551117 15.27846622 C45.66333217 15.30226914 50.20042032 15.31330741 54.73828125 15.29467773 C59.12189491 15.27715921 63.50419534 15.29381933 67.88764954 15.33367729 C69.55566649 15.34293527 71.22379794 15.3401033 72.89176941 15.32469368 C87.59362002 15.2021151 87.59362002 15.2021151 92.69848633 19.60351562 C93.77258084 20.78723942 94.81385605 22.00196502 95.8125 23.25 C96.88102721 24.34022421 97.95665485 25.42359138 99.04296875 26.49609375 C100.03463948 27.55431081 101.02032245 28.61817026 102 29.6875 C102.52335938 30.25533203 103.04671875 30.82316406 103.5859375 31.40820312 C106.63666969 34.77784057 109.11300581 38.09183672 111.32421875 42.0703125 C114.03163629 46.0355067 117.47086281 49.41302584 120.80078125 52.859375 C124.8125 57.05162109 124.8125 57.05162109 124.8125 59.25 C125.4725 59.25 126.1325 59.25 126.8125 59.25 C127.73808716 60.46562622 127.73808716 60.46562622 128.68237305 61.70581055 C132.069265 65.19865115 135.81536343 64.88294226 140.45967102 64.96894836 C141.5931749 64.96501572 142.72667877 64.96108307 143.89453125 64.95703125 C145.64850471 64.97971321 145.64850471 64.97971321 147.43791199 65.00285339 C151.1671366 65.04578929 154.89555265 65.05457471 158.625 65.0625 C161.15562054 65.08563951 163.68622179 65.11100369 166.21679688 65.13867188 C172.4153722 65.20158276 178.61363081 65.23647005 184.8125 65.25 C185.31685694 67.1863704 185.81583874 69.12414146 186.3125 71.0625 C186.73015625 72.68091797 186.73015625 72.68091797 187.15625 74.33203125 C187.8125 77.25 187.8125 77.25 187.8125 80.25 C179.73666742 80.41271209 171.66152768 80.53682812 163.5844574 80.6126852 C159.83321949 80.64910707 156.08310876 80.69844648 152.33251953 80.77807617 C148.70789645 80.85454346 145.08435223 80.89607325 141.45898438 80.9141407 C140.08104478 80.92700314 138.70315949 80.95212196 137.32568359 80.9901104 C125.19609127 81.31109822 125.19609127 81.31109822 120.15234375 76.83227539 C119.58765381 76.21195938 119.02296387 75.59164337 118.44116211 74.95252991 C116.68776705 73.1196098 115.09704942 72.30334194 112.8125 71.25 C111.3125 69.76171875 111.3125 69.76171875 109.8125 67.9375 C106.5772756 64.10961596 103.22545207 60.41842204 99.8125 56.75 C95.96610804 52.60691011 92.16792929 48.43904379 88.5078125 44.12890625 C87.94835937 43.50886719 87.38890625 42.88882813 86.8125 42.25 C86.11543945 41.23784424 85.41837891 40.22568848 84.70019531 39.18286133 C79.56601207 34.1174802 71.64234026 35.40176432 64.9140625 35.4453125 C63.35319981 35.43405529 61.79235406 35.42017154 60.23153687 35.40377808 C56.1378732 35.36780028 52.04495728 35.36735868 47.95117188 35.37445068 C43.76809384 35.37536482 39.5852942 35.34248776 35.40234375 35.3125 C27.20562625 35.25869456 19.00938959 35.24244896 10.8125 35.25 C10.50707275 36.1999585 10.20164551 37.14991699 9.88696289 38.12866211 C7.45476552 45.19424798 2.3875498 48.89971046 -4.0390625 52.3046875 C-10.99925531 55.36717234 -20.04616123 55.29961587 -27.4453125 53.7890625 C-35.41038228 50.64008142 -41.49561505 44.87292033 -45.1875 37.25 C-48.16561464 29.73380591 -48.35385474 21.67518489 -45.625 14.0625 C-41.87139615 5.71968437 -35.78668824 -0.08371989 -27.5625 -4 C-17.63401332 -6.20633037 -8.82725171 -4.84633427 0 0 Z " fill="#4F7EAA" transform="translate(549.1875,392.75)" data-index="6"></path>
<path d="M0 0 C8.93486719 7.37682985 14.9777561 16.30338229 17.1953125 27.8125 C18.20357123 41.94751178 15.20878139 54.15085755 6.0078125 65 C-1.16649682 72.65572779 -10.81605685 77.64859691 -21.41796875 78.24609375 C-22.98419893 78.26961517 -24.55091423 78.27045206 -26.1171875 78.25 C-27.35831299 78.23755249 -27.35831299 78.23755249 -28.62451172 78.22485352 C-42.12737648 77.85496611 -51.35502364 72.717201 -60.5546875 63.0625 C-69.96528918 51.85731847 -70.92606061 38.79452551 -69.8046875 24.8125 C-68.99386146 21.06880036 -67.74476491 18.10035704 -65.8046875 14.8125 C-65.38058594 14.049375 -64.95648438 13.28625 -64.51953125 12.5 C-58.29224871 2.23105498 -49.13595665 -4.73686366 -37.484375 -7.796875 C-23.76155139 -9.7972866 -11.45303285 -8.21005939 0 0 Z " fill="#2B6499" transform="translate(403.8046875,242.1875)" data-index="7"></path>
<path d="M0 0 C1.68512695 0.00773437 1.68512695 0.00773437 3.40429688 0.015625 C9.28949057 0.07091748 14.992906 0.36888931 20.8125 1.25 C19.40721144 5.54265741 17.36823757 8.07714552 14.25 11.3125 C-3.30739594 30.05436124 -14.51867746 52.13421783 -25.1875 75.25 C-36.7375 75.25 -48.2875 75.25 -60.1875 75.25 C-62.79479175 56.99895773 -61.85907362 39.98524713 -51.1875 24.25 C-37.97855612 7.36509771 -21.34755935 -0.3960127 0 0 Z " fill="#2B6397" transform="translate(355.1875,333.75)" data-index="8"></path>
<path d="M0 0 C1.23004509 -0.00065712 1.23004509 -0.00065712 2.48493958 -0.00132751 C5.18511073 0.00075615 7.88465462 0.02406701 10.5847168 0.04760742 C12.46086793 0.05320488 14.33702345 0.05747427 16.21318054 0.06047058 C21.14356662 0.07190752 26.07368625 0.10136484 31.00396729 0.13458252 C36.03800858 0.16530819 41.07209307 0.17898126 46.10620117 0.1940918 C55.97808168 0.22623566 65.84969473 0.27899424 75.72143555 0.34057617 C80.67143555 13.70557617 80.67143555 13.70557617 85.72143555 27.34057617 C73.56899402 27.43097026 61.41677606 27.50434605 49.26407433 27.54782486 C43.62099078 27.56869323 37.97814931 27.59699765 32.33520508 27.64233398 C26.88871508 27.68581778 21.44245784 27.70971892 15.99580765 27.72008514 C13.91857871 27.72747191 11.8413624 27.74189655 9.76423264 27.7634964 C6.85304049 27.79256366 3.94280822 27.79653073 1.03149414 27.79467773 C-0.25460251 27.81624939 -0.25460251 27.81624939 -1.56668091 27.83825684 C-6.94630842 27.80124292 -10.02311533 26.93837382 -14.27856445 23.34057617 C-17.33002882 18.8650951 -18.2291023 14.63190353 -17.27856445 9.34057617 C-13.2854116 1.50216502 -8.41841493 -0.11830784 0 0 Z " fill="#2A6298" transform="translate(253.278564453125,581.659423828125)" data-index="9"></path>
<path d="M0 0 C1.77213867 -0.01418472 1.77213867 -0.01418472 3.58007812 -0.02865601 C5.4740332 -0.01954697 5.4740332 -0.01954697 7.40625 -0.01025391 C8.71529297 -0.01312408 10.02433594 -0.01599426 11.37304688 -0.01895142 C14.13682744 -0.02336081 16.90031603 -0.01698892 19.6640625 -0.00292969 C23.19469446 0.01416189 26.72464213 0.00431319 30.25524902 -0.01364708 C33.63896988 -0.02713591 37.02250974 -0.01767302 40.40625 -0.01025391 C41.66888672 -0.0163266 42.93152344 -0.02239929 44.23242188 -0.02865601 C45.41384766 -0.01919952 46.59527344 -0.00974304 47.8125 0 C48.84697266 0.00238678 49.88144531 0.00477356 50.94726562 0.00723267 C55.77275013 0.62848394 58.99509815 2.4050987 62.28125 5.95068359 C64.46281488 10.56553238 64.70622224 14.36794966 63.90625 19.38818359 C61.51110474 24.45483703 58.98533669 26.24701454 53.90625 28.38818359 C50.90930176 28.77586365 50.90930176 28.77586365 47.72070312 28.79223633 C46.51925659 28.8049205 45.31781006 28.81760468 44.07995605 28.83067322 C42.79544556 28.82773758 41.51093506 28.82480194 40.1875 28.82177734 C38.84281146 28.82634399 37.49812525 28.83165099 36.15344238 28.83766174 C33.34259527 28.84657076 30.53203262 28.84419468 27.72119141 28.83422852 C24.12989131 28.82273196 20.53957352 28.84297038 16.9484024 28.87214565 C14.17386708 28.89054275 11.39956578 28.89020851 8.62498474 28.88450813 C6.66080549 28.88428148 4.6966481 28.90114218 2.73254395 28.9183197 C-8.31590657 28.83205288 -8.31590657 28.83205288 -13.09375 24.38818359 C-16.47884352 20.55174428 -16.61007897 16.75386051 -16.44140625 11.82568359 C-15.91565495 8.13951716 -14.60560609 6.09834411 -12.09375 3.38818359 C-7.91416521 0.91766222 -4.83630917 0.01115854 0 0 Z " fill="#2A6094" transform="translate(252.09375,449.61181640625)" data-index="10"></path>
<path d="M0 0 C1.28175613 -0.0127597 2.56351227 -0.02551941 3.8841095 -0.03866577 C5.28561248 -0.04172373 6.68711749 -0.04395133 8.08862305 -0.04541016 C9.52727898 -0.05183834 10.9659336 -0.05856671 12.40458679 -0.06558228 C15.4216108 -0.07755953 18.4385203 -0.08126278 21.45556641 -0.08007812 C25.31256461 -0.07987519 29.16882386 -0.10714791 33.02564716 -0.14162254 C35.99831988 -0.16391741 38.97081571 -0.16791485 41.94356346 -0.16685867 C43.36487557 -0.16921188 44.78619276 -0.1780197 46.20742226 -0.19352341 C48.20068421 -0.21322675 50.1941633 -0.20481172 52.1875 -0.1953125 C53.31984573 -0.19816254 54.45219147 -0.20101257 55.61885071 -0.20394897 C59.5201399 0.40479212 61.70143006 1.87696616 64.7878418 4.29052734 C67.881268 8.6840892 67.52371636 14.15427156 66.7878418 19.29052734 C64.84332722 23.21829185 61.84163988 25.69968004 57.7878418 27.29052734 C54.99343872 27.55795288 54.99343872 27.55795288 51.73754883 27.58105469 C49.90512131 27.60019424 49.90512131 27.60019424 48.03567505 27.61972046 C46.06061478 27.62305893 46.06061478 27.62305893 44.0456543 27.62646484 C42.67568829 27.63289555 41.30572365 27.63962412 39.9357605 27.64663696 C37.06594663 27.65860066 34.19625305 27.66231876 31.32641602 27.66113281 C27.65888087 27.66092971 23.99212143 27.68822504 20.32476997 27.72267723 C17.4953562 27.74497574 14.66612822 27.74896947 11.83663559 27.74791336 C9.83033254 27.7514045 7.82408747 27.77304963 5.81790161 27.79501343 C-5.47316234 27.73843263 -5.47316234 27.73843263 -10.2121582 23.29052734 C-13.5980323 19.45320337 -13.71840962 15.65963748 -13.5715332 10.73193359 C-13.04414667 7.14914462 -11.5691506 4.98423294 -9.2121582 2.29052734 C-5.6820425 -0.06288313 -4.18348742 0.02822511 0 0 Z " fill="#296094" transform="translate(249.212158203125,516.70947265625)" data-index="11"></path>
<path d="M0 0 C3.37604652 2.04191311 6.22195185 4.44390371 8 8 C8.57717357 12.73093088 8.43416625 16.14717343 6.25 20.4375 C3.65674316 23.3909314 1.74512429 24.72712602 -2.1484375 25.3359375 C-7.58888644 25.43138397 -10.80304082 24.79724878 -15 21 C-17.40943467 17.58015724 -18.24719111 15.04864944 -17.9375 10.9375 C-17.25840686 7.07700315 -15.84355487 4.76231044 -13 2 C-8.76656329 -0.49755053 -4.80951899 -0.95382057 0 0 Z " fill="#FCFCFD" transform="translate(595,486)" data-index="12"></path>
<path d="M0 0 C4.38773175 2.19386588 7.09334197 4.44520582 9 9 C9.54223844 13.26044487 9.30065535 15.42096006 7.3125 19.25 C3.94777306 23.2512969 1.75935476 24.84291475 -3.5 25.3125 C-9.13250402 24.80959785 -12.32084962 23.33614152 -16 19 C-17.49142111 14.52573668 -17.74270548 10.68085977 -15.8125 6.3125 C-11.22541817 0.46001628 -7.31727723 -1.27761983 0 0 Z " fill="#FBFCFD" transform="translate(536,405)" data-index="13"></path>

<path d="M0 0 C3.3737101 2.05056357 6.22043124 4.44086248 8 8 C8.57717357 12.73093088 8.43416625 16.14717343 6.25 20.4375 C3.65674316 23.3909314 1.74512429 24.72712602 -2.1484375 25.3359375 C-7.5930041 25.43145621 -10.74878427 24.73277479 -15 21 C-17.58012035 16.78521435 -17.55092407 12.8119774 -17 8 C-15.699544 4.85152757 -14.4485648 3.38259939 -11.875 1.1875 C-7.81412371 -0.48981847 -4.32002884 -0.93625198 0 0 Z " fill="#FDFDFE" transform="translate(459,486)" data-index="15"></path>
<path d="M0 0 C1.60597325 0.45196245 3.20972508 0.91182327 4.8125 1.375 C5.70582031 1.63023437 6.59914063 1.88546875 7.51953125 2.1484375 C10 3 10 3 13 5 C-47.06 5 -107.12 5 -169 5 C-169 4.34 -169 3.68 -169 3 C-113.23 3 -57.46 3 0 3 C0 2.01 0 1.02 0 0 Z " fill="#326FA8" transform="translate(442,719)" data-index="16"></path>
<path d="M0 0 C3.52605159 3.15777509 5.71321013 6.65797781 7.875 10.8125 C8.22014648 11.46903564 8.56529297 12.12557129 8.92089844 12.80200195 C12.46396933 19.68083639 15.32539335 26.74148049 18 34 C18.42667969 35.1446875 18.85335937 36.289375 19.29296875 37.46875 C22.37968956 46.14949385 22.37968956 46.14949385 21 50 C21 49.01 21 48.02 21 47 C20.02067253 47.01332367 20.02067253 47.01332367 19.02156067 47.0269165 C12.22466794 47.11542916 5.42793901 47.17575086 -1.36938477 47.21972656 C-3.90591075 47.23983841 -6.4423904 47.26713161 -8.97875977 47.30175781 C-12.62527911 47.35029242 -16.27118528 47.37297363 -19.91796875 47.390625 C-21.61822456 47.42159271 -21.61822456 47.42159271 -23.35282898 47.45318604 C-31.21951104 47.45542669 -31.21951104 47.45542669 -35.25512695 45.10058594 C-37 43 -37 43 -37 41 C-37.66 41 -38.32 41 -39 41 C-40.4453125 39.56640625 -40.4453125 39.56640625 -42.125 37.5625 C-42.73730469 36.84191406 -43.34960938 36.12132812 -43.98046875 35.37890625 C-44.64691406 34.59386719 -45.31335938 33.80882812 -46 33 C-47.47486024 31.3295213 -48.95393475 29.66275253 -50.4375 28 C-51.11683594 27.236875 -51.79617188 26.47375 -52.49609375 25.6875 C-52.99238281 25.130625 -53.48867188 24.57375 -54 24 C-53.67 23.34 -53.34 22.68 -53 22 C-52.54149658 22.48879639 -52.08299316 22.97759277 -51.6105957 23.48120117 C-49.51206915 25.71742285 -47.4122954 27.95246974 -45.3125 30.1875 C-44.2306543 31.34088867 -44.2306543 31.34088867 -43.12695312 32.51757812 C-42.06831055 33.64389648 -42.06831055 33.64389648 -40.98828125 34.79296875 C-40.34415283 35.4789917 -39.70002441 36.16501465 -39.03637695 36.87182617 C-38.36437256 37.57412354 -37.69236816 38.2764209 -37 39 C-36.33291016 39.8971875 -35.66582031 40.794375 -34.97851562 41.71875 C-30.39440665 45.22972658 -25.98119342 44.72733303 -20.35546875 44.70703125 C-18.66808342 44.72971321 -18.66808342 44.72971321 -16.9466095 44.75285339 C-13.36003652 44.79577886 -9.77430442 44.80457363 -6.1875 44.8125 C-3.75323278 44.83564035 -1.31898561 44.8610047 1.11523438 44.88867188 C7.07683085 44.95157229 13.03809808 44.98646794 19 45 C15.96157701 35.22184854 12.39816982 26.05767628 7.8125 16.875 C6.75521881 14.72719783 5.69918018 12.57878343 4.64453125 10.4296875 C4.18409424 9.50397949 3.72365723 8.57827148 3.24926758 7.62451172 C2.05562769 5.1168649 1.00056259 2.58993241 0 0 Z " fill="#2D5173" transform="translate(713,411)" data-index="17"></path>
<path d="M0 0 C2.9512645 1.47563225 3.06923915 3.50079352 4.125 6.5625 C4.47820312 7.57441406 4.83140625 8.58632813 5.1953125 9.62890625 C5.59363281 10.80259766 5.59363281 10.80259766 6 12 C-6.15238791 12.09270935 -18.30469159 12.16377 -30.45736122 12.20724869 C-36.10044477 12.22811706 -41.74328624 12.25642148 -47.38623047 12.30175781 C-52.83272046 12.34524161 -58.2789777 12.36914275 -63.7256279 12.37950897 C-65.80285684 12.38689573 -67.88007314 12.40132037 -69.95720291 12.42292023 C-72.86839506 12.45198749 -75.77862733 12.45595456 -78.68994141 12.45410156 C-79.54733917 12.46848267 -80.40473694 12.48286377 -81.28811646 12.49768066 C-86.75363477 12.46007578 -89.86876842 11.68873928 -94 8 C-94 7.01 -94 6.02 -94 5 C-93.36089188 5.64874084 -92.72178375 6.29748169 -92.06330872 6.96588135 C-87.93202392 9.70916459 -84.83956935 9.57487877 -79.98706055 9.54589844 C-79.08900192 9.55623611 -78.1909433 9.56657379 -77.26567078 9.57722473 C-74.30583711 9.60665436 -71.34668723 9.60815195 -68.38671875 9.609375 C-66.33118892 9.62435652 -64.27567113 9.64108361 -62.22016907 9.65948486 C-56.81643115 9.70317359 -51.41285561 9.72316095 -46.00897217 9.73822021 C-40.49221183 9.75778571 -34.97562701 9.7997564 -29.45898438 9.83984375 C-18.63937703 9.91516245 -7.81980894 9.96544397 3 10 C2.505 8.906875 2.01 7.81375 1.5 6.6875 C0 3 0 3 0 0 Z " fill="#1C426B" transform="translate(333,597)" data-index="18"></path>
<path d="M0 0 C2.09983154 4.19966309 2.24429055 6.01871462 2.22705078 10.60449219 C2.22734283 11.25856552 2.22763489 11.91263885 2.22793579 12.58653259 C2.22654676 14.74011683 2.21100608 16.89335149 2.1953125 19.046875 C2.19158084 20.54331269 2.18873459 22.03975283 2.18673706 23.53619385 C2.1791126 27.4686359 2.15947438 31.40092947 2.1373291 35.33331299 C2.11684506 39.34849031 2.10772988 43.3636917 2.09765625 47.37890625 C2.0762273 55.25267219 2.04210576 63.12631761 2 71 C1.01 70.67 0.02 70.34 -1 70 C-0.67 46.9 -0.34 23.8 0 0 Z " fill="#1A4167" transform="translate(638,198)" data-index="19"></path>
<path d="M0 0 C1.24106003 0.00007553 2.48212006 0.00015106 3.76078796 0.00022888 C5.11502116 0.00533548 6.46925395 0.01055148 7.82348633 0.01586914 C9.20925343 0.01773456 10.59502119 0.01915788 11.98078918 0.02015686 C15.62549668 0.02397229 19.27016423 0.03379426 22.91485596 0.04486084 C26.63504496 0.05509589 30.35524042 0.05965897 34.07543945 0.06469727 C41.37298369 0.07541741 48.67049503 0.09248214 55.96801758 0.11352539 C55.96801758 1.10352539 55.96801758 2.09352539 55.96801758 3.11352539 C55.18763123 3.10908417 54.40724487 3.10464294 53.60321045 3.10006714 C46.24639164 3.05998187 38.88962583 3.02953667 31.53272629 3.00990105 C27.75052987 2.99946681 23.96842375 2.98531423 20.1862793 2.96264648 C16.5358415 2.94090518 12.88549053 2.92895406 9.23499298 2.9237709 C7.84274173 2.92007745 6.4504952 2.91286505 5.05828094 2.90206528 C3.10734191 2.88753413 1.1563154 2.88670833 -0.79467773 2.88647461 C-1.90498352 2.88203339 -3.01528931 2.87759216 -4.15924072 2.87301636 C-6.9891223 3.10993709 -8.63363656 3.64516243 -11.03198242 5.11352539 C-10.21948242 3.17602539 -10.21948242 3.17602539 -9.03198242 1.11352539 C-5.77826698 0.02895358 -3.42298922 -0.00694318 0 0 Z " fill="#33597E" transform="translate(682.031982421875,516.886474609375)" data-index="20"></path>
<path d="M0 0 C0.99 0.33 1.98 0.66 3 1 C3 1.66 3 2.32 3 3 C3.86286621 3.37390869 3.86286621 3.37390869 4.74316406 3.75537109 C7.32410072 5.17873923 9.04212237 6.81548786 11.109375 8.9140625 C11.86347656 9.67460938 12.61757813 10.43515625 13.39453125 11.21875 C14.17183594 12.0128125 14.94914063 12.806875 15.75 13.625 C16.54277344 14.42679688 17.33554687 15.22859375 18.15234375 16.0546875 C20.10614493 18.03202846 22.05512103 20.01388909 24 22 C19.4105068 22 17.18442307 19.09596687 14 16 C13.360625 15.195625 12.72125 14.39125 12.0625 13.5625 C9.61387988 10.520275 6.8215169 8.21078645 3.8046875 5.74609375 C1.93947694 3.94144197 1.00736637 2.37302283 0 0 Z " fill="#32567C" transform="translate(823,720)" data-index="21"></path>
<path d="M0 0 C0.66 0.66 1.32 1.32 2 2 C1.33613281 2.03738281 0.67226563 2.07476563 -0.01171875 2.11328125 C-7.01523257 2.57264889 -7.01523257 2.57264889 -13 6 C-15.74130204 9.52453119 -15.30562136 13.73876499 -15 18 C-14.58268982 20.35529281 -14.58268982 20.35529281 -14 22 C-16.07485859 20.31383524 -16.92702502 19.44883535 -17.36328125 16.765625 C-17.25649372 11.47553524 -16.74116831 7.00585889 -15 2 C-9.85267095 0.55513571 -5.40181446 -0.43214516 0 0 Z " fill="#446A8C" transform="translate(535,566)" data-index="22"></path>
<path d="M0 0 C3.48909302 3.17517218 4.64711394 6.59181132 6.25 10.9375 C6.53101563 11.65357422 6.81203125 12.36964844 7.1015625 13.10742188 C8.50532292 16.85657408 9.23198616 19.18411833 8 23 C7.49596232 21.70990357 6.99690074 20.41786211 6.5 19.125 C6.2215625 18.40570313 5.943125 17.68640625 5.65625 16.9453125 C5 15 5 15 5 13 C4.34 13 3.68 13 3 13 C2.49487756 11.39743892 1.99608373 9.79288208 1.5 8.1875 C1.2215625 7.29417969 0.943125 6.40085937 0.65625 5.48046875 C0 3 0 3 0 0 Z " fill="#274F76" transform="translate(760,415)" data-index="23"></path>
<path d="M0 0 C1.13138149 3.39414448 0.95513316 3.75505607 -0.44140625 6.84375 C-0.77527344 7.59092285 -1.10914063 8.3380957 -1.453125 9.10791016 C-1.81921875 9.8972998 -2.1853125 10.68668945 -2.5625 11.5 C-2.92730469 12.30356934 -3.29210937 13.10713867 -3.66796875 13.93505859 C-6.50721305 20.11612321 -9.57952607 26.11782135 -13 32 C-13.33 31.34 -13.66 30.68 -14 30 C-13.21142578 27.92456055 -13.21142578 27.92456055 -11.9453125 25.38671875 C-11.49542969 24.46826172 -11.04554688 23.54980469 -10.58203125 22.60351562 C-10.10121094 21.64123047 -9.62039063 20.67894531 -9.125 19.6875 C-8.18482781 17.7981894 -7.24974681 15.90633485 -6.3203125 14.01171875 C-5.90023926 13.17084717 -5.48016602 12.32997559 -5.04736328 11.46362305 C-3.98844526 8.97282076 -3.43261947 6.66504304 -3 4 C-2.34 4 -1.68 4 -1 4 C-0.67 2.68 -0.34 1.36 0 0 Z " fill="#204266" transform="translate(765,574)" data-index="24"></path>
<path d="M0 0 C0 3.72943831 -1.38464 4.81398236 -3.76953125 7.51953125 C-5.10961347 9.01755148 -5.10961347 9.01755148 -6.0625 11.125 C-7.33201273 13.66402546 -8.78121763 15.23802577 -11 17 C-12.32 16.67 -13.64 16.34 -15 16 C-7.575 8.08 -7.575 8.08 0 0 Z " fill="#3F688D" transform="translate(641,554)" data-index="25"></path>
<path d="M0 0 C0 5.00023376 -3.20720567 8.08202762 -6.375 11.75 C-9.19230259 14.16483079 -11.43267668 15.08742892 -15 16 C-10.30233025 10.33870569 -5.25276628 5.14771096 0 0 Z " fill="#204E7C" transform="translate(212,206)" data-index="26"></path>
<path d="M0 0 C2.30406939 2.10580846 3.65493298 3.99763871 4.9375 6.8359375 C5.27523438 7.57070313 5.61296875 8.30546875 5.9609375 9.0625 C6.47527344 10.2071875 6.47527344 10.2071875 7 11.375 C7.6849585 12.88396873 8.37240236 14.39181212 9.0625 15.8984375 C9.38734375 16.60838867 9.7121875 17.31833984 10.046875 18.04980469 C11.06007199 20.20667031 11.06007199 20.20667031 12.8125 22.9140625 C13.204375 23.60242188 13.59625 24.29078125 14 25 C13.67 25.66 13.34 26.32 13 27 C11.70144393 24.79547458 10.41111805 22.58676704 9.125 20.375 C8.76019531 19.75753906 8.39539063 19.14007812 8.01953125 18.50390625 C6.29351828 15.52261112 4.97267577 12.9132406 3.9296875 9.6015625 C3.46949219 8.31378906 3.46949219 8.31378906 3 7 C2.01 6.67 1.02 6.34 0 6 C0 4.02 0 2.04 0 0 Z " fill="#1C4267" transform="translate(383,568)" data-index="27"></path>
<path d="M0 0 C3.29684931 1.45536591 5.61553766 3.30506733 8.25 5.75 C12.31808769 9.44703491 16.5398253 12.79159095 21 16 C20.34 16.33 19.68 16.66 19 17 C16.9571299 15.43905326 14.91569142 13.87629071 12.875 12.3125 C12.30523437 11.87744141 11.73546875 11.44238281 11.1484375 10.99414062 C9.42482394 9.67205068 7.71018894 8.33940439 6 7 C5.41637695 6.54544434 4.83275391 6.09088867 4.23144531 5.62255859 C2.78184943 4.46228534 1.38555106 3.23604631 0 2 C0 1.34 0 0.68 0 0 Z " fill="#23486F" transform="translate(428,633)" data-index="28"></path>
<path d="M0 0 C0.66 0.33 1.32 0.66 2 1 C1.34773438 1.64066406 0.69546875 2.28132812 0.0234375 2.94140625 C-4.883259 7.79744364 -9.60304566 12.67737106 -14 18 C-14.66 17.67 -15.32 17.34 -16 17 C-14.27227744 15.10283355 -12.54287266 13.20724695 -10.8125 11.3125 C-10.32974609 10.78205078 -9.84699219 10.25160156 -9.34960938 9.70507812 C-6.312614 6.38272748 -3.2063098 3.15941679 0 0 Z " fill="#2D5072" transform="translate(229,188)" data-index="29"></path>
<path d="M0 0 C-4.95 1.485 -4.95 1.485 -10 3 C-10 3.66 -10 4.32 -10 5 C-17.625 7.125 -17.625 7.125 -21 6 C-18.25538312 4.79848104 -15.50547873 3.61361897 -12.75 2.4375 C-11.97269531 2.09525391 -11.19539063 1.75300781 -10.39453125 1.40039062 C-9.64042969 1.08134766 -8.88632812 0.76230469 -8.109375 0.43359375 C-7.07248535 -0.01415405 -7.07248535 -0.01415405 -6.01464844 -0.47094727 C-4 -1 -4 -1 0 0 Z " fill="#20466E" transform="translate(485,290)" data-index="30"></path>
<path d="M0 0 C1.875 0.1875 1.875 0.1875 4 1 C4.268125 1.680625 4.53625 2.36125 4.8125 3.0625 C6.59303537 7.46698224 9.79628846 10.54787232 13 14 C12.67 14.66 12.34 15.32 12 16 C10.56041153 14.41856529 9.12341355 12.83477221 7.6875 11.25 C6.88699219 10.36828125 6.08648437 9.4865625 5.26171875 8.578125 C0 2.58031088 0 2.58031088 0 0 Z " fill="#20446A" transform="translate(374,633)" data-index="31"></path>
<path d="M0 0 C-2.26743213 2.59342078 -4.15976378 3.61901688 -7.4375 4.625 C-8.19933594 4.86476563 -8.96117187 5.10453125 -9.74609375 5.3515625 C-11.8215577 5.94866305 -13.90086028 6.49314622 -16 7 C-13.62905707 4.34828752 -11.16431913 2.8509948 -8 1.25 C-7.13375 0.80140625 -6.2675 0.3528125 -5.375 -0.109375 C-3 -1 -3 -1 0 0 Z " fill="#21486F" transform="translate(641,663)" data-index="32"></path>
<path d="M0 0 C0.33 1.32 0.66 2.64 1 4 C-4.53751723 7.29894643 -8.52787492 8.66953018 -15 8 C-15.66 7.34 -16.32 6.68 -17 6 C-16.41992188 6.04640625 -15.83984375 6.0928125 -15.2421875 6.140625 C-9.56348817 6.40300715 -6.53281451 5.75891935 -2 2 C-1.34 1.34 -0.68 0.68 0 0 Z " fill="#426688" transform="translate(543,586)" data-index="33"></path>
<path d="M0 0 C-2 2 -2 2 -4.0234375 2.265625 C-5.18746094 2.25789063 -5.18746094 2.25789063 -6.375 2.25 C-7.14585937 2.25515625 -7.91671875 2.2603125 -8.7109375 2.265625 C-11.1992361 1.97688045 -12.84234198 1.24139229 -15 0 C-9.76528314 -0.75612577 -5.22745859 -1.2063366 0 0 Z " fill="#234D78" transform="translate(589,319)" data-index="34"></path>
<path d="M0 0 C3.2102122 3.2102122 2.98974759 6.37460314 3.0625 10.8125 C3.041875 11.864375 3.02125 12.91625 3 14 C2.34 14 1.68 14 1 14 C0.83081732 12.41693353 0.66476064 10.83353281 0.5 9.25 C0.4071875 8.36828125 0.314375 7.4865625 0.21875 6.578125 C0 4 0 4 0 0 Z " fill="#2C5984" transform="translate(736,466)" data-index="35"></path>
<path d="M0 0 C0.99 0.33 1.98 0.66 3 1 C3 1.66 3 2.32 3 3 C3.61875 3.268125 4.2375 3.53625 4.875 3.8125 C7 5 7 5 9 8 C6 8 6 8 4.39453125 6.7578125 C3.87246094 6.21898437 3.35039063 5.68015625 2.8125 5.125 C2.28269531 4.59132813 1.75289062 4.05765625 1.20703125 3.5078125 C0 2 0 2 0 0 Z " fill="#33597E" transform="translate(823,720)" data-index="36"></path>
<path d="M0 0 C0.66 0.33 1.32 0.66 2 1 C-1.465 3.97 -1.465 3.97 -5 7 C-5.66 6.67 -6.32 6.34 -7 6 C-3.375 1.125 -3.375 1.125 0 0 Z " fill="#22466C" transform="translate(444,353)" data-index="37"></path>
<path d="M0 0 C0.66 0.33 1.32 0.66 2 1 C0.68 3.31 -0.64 5.62 -2 8 C-2.66 6.68 -3.32 5.36 -4 4 C-2.68 2.68 -1.36 1.36 0 0 Z " fill="#265482" transform="translate(262,156)" data-index="38"></path>
<path d="M0 0 C3.7952131 1.49097658 5.61042731 3.75700849 8 7 C5.05043472 5.63055898 2.47531189 4.12169591 0 2 C0 1.34 0 0.68 0 0 Z " fill="#294E74" transform="translate(839,736)" data-index="39"></path>
</svg>